<svg xmlns="http://www.w3.org/2000/svg" viewBox="0 0 64 64" role="img" aria-label="VirusGPT favicon">
  <defs>
    <radialGradient id="fb" cx="50%" cy="42%" r="70%">
      <stop offset="0%" stop-color="#07241b"/>
      <stop offset="100%" stop-color="#03110c"/>
    </radialGradient>
    <linearGradient id="fg" x1="0" y1="0" x2="1" y2="1">
      <stop offset="0%" stop-color="#00ff9c"/>
      <stop offset="100%" stop-color="#23e0ff"/>
    </linearGradient>
  </defs>
  <rect width="64" height="64" rx="14" fill="url(#fb)"/>
  <g stroke="url(#fg)" stroke-width="4" stroke-linecap="round" fill="none" transform="translate(32 32)">
    <circle r="10" fill="#04130d" stroke-width="3"/>
    <g>
      <line x1="0" y1="-10" x2="0" y2="-22"/>
      <line x1="0" y1="10" x2="0" y2="22"/>
      <line x1="-10" y1="0" x2="-22" y2="0"/>
      <line x1="10" y1="0" x2="22" y2="0"/>
      <line x1="-7" y1="-7" x2="-16" y2="-16"/>
      <line x1="7" y1="7" x2="16" y2="16"/>
      <line x1="-7" y1="7" x2="-16" y2="16"/>
      <line x1="7" y1="-7" x2="16" y2="-16"/>
    </g>
    <g fill="url(#fg)" stroke="none">
      <circle cx="0" cy="-22" r="3"/><circle cx="0" cy="22" r="3"/>
      <circle cx="-22" cy="0" r="3"/><circle cx="22" cy="0" r="3"/>
      <circle cx="-16" cy="-16" r="3"/><circle cx="16" cy="16" r="3"/>
      <circle cx="-16" cy="16" r="3"/><circle cx="16" cy="-16" r="3"/>
    </g>
  </g>
</svg>
